<?xml version="1.0" encoding="utf-8"?>
<!-- Generator: Adobe Illustrator 19.2.1, SVG Export Plug-In . SVG Version: 6.00 Build 0)  -->
<svg version="1.1" id="Layer_1" xmlns="http://www.w3.org/2000/svg" xmlns:xlink="http://www.w3.org/1999/xlink" x="0px" y="0px"
	 viewBox="0 0 100 125" style="enable-background:new 0 0 100 125;" xml:space="preserve">
<style type="text/css">
	.st0{fill:#0400AF;}
</style>
<title>Artboard 23</title>
<path class="st0" d="M5.3,88.8c0.1,0.9,0.4,1.7,0.9,2.5c0.5,0.8,1.1,1.5,1.9,2c0.8,0.6,1.6,1,2.6,1.3c1,0.3,2,0.5,3,0.5h72.8
	c1,0,2-0.2,3-0.5c0.9-0.3,1.8-0.8,2.6-1.3c0.7-0.5,1.4-1.2,1.9-2c0.5-0.8,0.8-1.6,0.9-2.5L98,59.5c0.1-1,0-2-0.3-2.9
	c-0.3-0.9-0.9-1.7-1.5-2.4c-0.7-0.7-1.6-1.3-2.5-1.6c-1-0.4-2.1-0.6-3.2-0.6H9.6c-1.1,0-2.2,0.2-3.2,0.6c-0.9,0.4-1.8,0.9-2.5,1.6
	c-0.7,0.7-1.2,1.5-1.5,2.4C2,57.5,1.9,58.5,2,59.5L5.3,88.8z M29.6,69c0.2-0.4,0.5-0.8,0.8-1.1c0.4-0.3,0.8-0.6,1.3-0.8
	c0.5-0.2,1-0.3,1.6-0.3c0.5,0,1.1,0.1,1.6,0.3c0.5,0.2,0.9,0.4,1.3,0.8c0.4,0.3,0.7,0.7,0.9,1.1c0.2,0.4,0.3,0.9,0.4,1.4l0.2,5.2
	h24.7l0.2-5.2c0-0.5,0.1-1,0.3-1.4c0.2-0.4,0.5-0.8,0.9-1.1c0.4-0.3,0.8-0.6,1.3-0.8c0.5-0.2,1.1-0.3,1.6-0.3c0.5,0,1.1,0.1,1.6,0.3
	c0.5,0.2,0.9,0.4,1.3,0.8c0.4,0.3,0.6,0.7,0.8,1.1c0.2,0.4,0.3,0.9,0.2,1.4l-0.4,8.7c0,0.5-0.2,0.9-0.4,1.3
	c-0.2,0.4-0.5,0.8-0.9,1.1c-0.4,0.3-0.8,0.6-1.3,0.7c-0.5,0.2-1,0.3-1.6,0.3H33.9c-0.5,0-1.1-0.1-1.5-0.3c-0.5-0.1-0.9-0.4-1.3-0.7
	c-0.4-0.3-0.7-0.7-0.9-1.1c-0.2-0.4-0.4-0.9-0.4-1.3l-0.4-8.7C29.3,69.9,29.4,69.4,29.6,69z M73.6,13.2h-8.4l0.2-3.7
	c0.1-1.5-0.1-2.9-0.6-4.3c0-0.1-0.1-0.2-0.2-0.3h13.4c2.3,0,4.2,1.6,4.6,3.8L88.8,45h-9.3l-5.2-31.2C74.2,13.5,73.9,13.2,73.6,13.2
	L73.6,13.2z M36.3,5.2c-0.5,1.4-0.7,2.9-0.6,4.3l0.2,3.7h-8.4c-0.4,0-0.7,0.3-0.7,0.6L21.6,45h-9.3l6.2-36.3
	c0.4-2.2,2.3-3.9,4.6-3.8h13.4C36.4,5,36.3,5.1,36.3,5.2L36.3,5.2z M35.8,29.5c-0.1-0.3-0.2-0.7-0.2-1c0-0.4,0-0.7,0.1-1.1
	c0.1-0.4,0.3-0.7,0.6-1c0.2-0.2,0.4-0.4,0.6-0.6c0.2-0.2,0.5-0.3,0.8-0.4c0.3-0.1,0.6-0.2,0.9-0.3c0.3-0.1,0.6-0.1,0.9-0.1h4.5
	L43.4,9.5c0-0.5,0.1-1,0.3-1.4c0.2-0.4,0.5-0.8,0.8-1.2c0.4-0.3,0.8-0.6,1.2-0.8c0.5-0.2,1-0.3,1.5-0.3h6.7c0.5,0,1,0.1,1.5,0.3
	c0.5,0.2,0.9,0.5,1.2,0.8c0.3,0.3,0.6,0.7,0.8,1.2c0.2,0.5,0.3,0.9,0.3,1.4l-0.5,15.6h4.7c0.4,0,0.7,0,1.1,0.1
	c0.3,0.1,0.7,0.2,1,0.4c0.3,0.2,0.6,0.4,0.8,0.6c0.2,0.2,0.4,0.5,0.6,0.8c0.1,0.2,0.2,0.5,0.3,0.8c0,0.1,0,0.3,0.1,0.4
	c0,0.1,0,0.3,0,0.4c0,0.2,0,0.3-0.1,0.5c0,0.2-0.1,0.3-0.2,0.5c-0.1,0.2-0.2,0.3-0.3,0.5c-0.1,0.2-0.2,0.3-0.3,0.4L53.5,42.7
	c-0.2,0.2-0.4,0.4-0.6,0.5c-0.2,0.2-0.5,0.3-0.7,0.4c-0.3,0.1-0.5,0.2-0.8,0.2c-0.6,0.1-1.2,0.1-1.7,0c-0.3-0.1-0.5-0.1-0.8-0.2
	c-0.3-0.1-0.5-0.2-0.7-0.4c-0.2-0.1-0.4-0.3-0.6-0.5L36.4,30.5C36.1,30.2,35.9,29.9,35.8,29.5L35.8,29.5z"/>
</svg>
