<?xml version="1.0" encoding="utf-8"?>
<!-- Generator: Adobe Illustrator 19.2.1, SVG Export Plug-In . SVG Version: 6.00 Build 0)  -->
<svg version="1.1" id="Layer_1" xmlns="http://www.w3.org/2000/svg" xmlns:xlink="http://www.w3.org/1999/xlink" x="0px" y="0px"
	 viewBox="0 0 100 125" style="enable-background:new 0 0 100 125;" xml:space="preserve">
<style type="text/css">
	.st0{fill:#0400AF;}
</style>
<title>123all</title>
<path class="st0" d="M90.5,31c-6.1-3.1-13.5-0.6-16.6,5.5c-1.1,2.2-1.5,4.7-1.2,7.1l-5.5,2c-2.5-4.6-7-7.7-12.1-8.4l-0.4-8.7
	c0.3-0.1,0.7-0.2,1-0.3c6.5-2.1,10-9.1,7.9-15.6s-9.1-10-15.6-7.9s-10,9.1-7.9,15.6c1,3.1,3.2,5.7,6.2,7.2c0.8,0.4,1.6,0.7,2.5,0.9
	l0.4,9.1c-0.4,0.1-0.7,0.2-1.1,0.3c-3.6,1.2-6.6,3.6-8.6,6.8l-11.9-4c0.4-6.8-4.9-12.7-11.7-13.1S3.1,32.3,2.7,39.2
	s4.9,12.7,11.7,13.1c4.6,0.3,8.9-2,11.3-6l11.5,3.8c-0.7,3.8,0,7.8,2,11.2l-4.8,4.8c-6-3.4-13.6-1.4-17,4.6S16,84.3,22,87.7
	c6,3.4,13.6,1.4,17-4.6c2.3-4,2.2-9-0.3-12.9l4.4-4.5c4.2,3.3,9.8,4.3,14.9,2.6h0.1l2.9,5.2c-5.5,4-6.7,11.8-2.7,17.3
	s11.8,6.7,17.3,2.7c5.5-4,6.7-11.8,2.7-17.3c-2.7-3.7-7.2-5.6-11.7-4.9l-3.3-5.9c4.1-3.5,6.3-8.8,5.7-14.2l5.9-2.1
	c3.9,5.6,11.6,7,17.2,3.1s7-11.6,3.1-17.2C94,33.3,92.4,31.9,90.5,31z M17.1,46c-3.3,1.1-6.9-0.7-8-4s0.7-6.9,4-8s6.9,0.7,8,4
	c0,0,0,0,0,0C22.2,41.3,20.4,44.9,17.1,46z M30.2,82.9c-3.3,1.1-6.9-0.7-8-4c-1.1-3.3,0.7-6.9,4-8s6.9,0.7,8,4c0,0,0,0,0,0
	C35.3,78.2,33.5,81.8,30.2,82.9z M48.8,22.1c-3.1-1.6-4.4-5.4-2.8-8.5s5.4-4.4,8.5-2.8c3.1,1.6,4.4,5.4,2.8,8.5
	c-0.8,1.5-2.1,2.6-3.7,3.2C52.1,23,50.4,22.9,48.8,22.1z M56.1,62.7c-5.3,1.7-11-1.1-12.8-6.4s1.1-11,6.4-12.8s11,1.1,12.8,6.4
	c0,0,0,0,0,0C64.3,55.2,61.4,60.9,56.1,62.7L56.1,62.7z M66.3,77.5c3.3-1.1,6.9,0.7,8,4.1s-0.7,6.9-4.1,8c-3.3,1.1-6.9-0.7-8-4.1
	c-0.5-1.6-0.4-3.3,0.4-4.9C63.4,79.2,64.7,78.1,66.3,77.5z M90.6,44.9C89,48,85.2,49.3,82,47.7s-4.4-5.4-2.8-8.6
	c1.6-3.1,5.4-4.4,8.6-2.8c1.5,0.8,2.6,2.1,3.2,3.7C91.5,41.7,91.4,43.4,90.6,44.9z"/>
</svg>
