<?xml version="1.0" encoding="utf-8"?>
<!-- Generator: Adobe Illustrator 19.2.1, SVG Export Plug-In . SVG Version: 6.00 Build 0)  -->
<svg version="1.1" id="Layer_1" xmlns="http://www.w3.org/2000/svg" xmlns:xlink="http://www.w3.org/1999/xlink" x="0px" y="0px"
	 viewBox="0 0 100 83.3" style="enable-background:new 0 0 100 83.3;" xml:space="preserve">
<style type="text/css">
	.st0{fill:#0400AF;}
</style>
<path class="st0" d="M93.6,34c0.1-0.2,0.1-0.5,0.1-0.7h-0.9L93.6,34z"/>
<path class="st0" d="M93.8,28.3v-9.6c0-1.2-0.9-2.1-2.1-2.1h-4.2v-6.2c0-1.2-0.9-2.1-2.1-2.1h-4.2V2.1c0-1.2-0.9-2.1-2.1-2.1H60.4
	c-0.6,0-1.1,0.2-1.5,0.6l-5.6,5.6H20.8c-1.2,0-2.1,0.9-2.1,2.1v6.2h-4.2c-1.2,0-2.1,0.9-2.1,2.1v6.2H8.3c-1.2,0-2.1,0.9-2.1,2.1v3.8
	L0,34.5v48.8h100V34.6L93.8,28.3z M22.9,10.4h31.2c0.6,0,1.1-0.2,1.5-0.6l5.6-5.6h15.8v4.2H66.7c-0.6,0-1.1,0.2-1.5,0.6l-5.6,5.6
	H22.9V10.4z M16.7,18.8h43.8c0.6,0,1.1-0.2,1.5-0.6l5.6-5.6h15.8v4.2H72.9c-0.6,0-1.1,0.2-1.5,0.6l-5.6,5.6H16.7V18.8z M10.4,31.2
	v-4.2h56.2c0.6,0,1.1-0.2,1.5-0.6l5.6-5.6h15.8v10.4H10.4z M95.8,79.2H4.2V37.5h91.7L95.8,79.2L95.8,79.2z"/>
<path class="st0" d="M43.8,69.1c-3.7-2.2-6.2-6.2-6.2-10.8c0-5.4,3.5-10,8.3-11.8v1.4l6.2-4.2l-6.2-4.2v2.6
	c-7.2,1.9-12.5,8.4-12.5,16.1c0,7,4.3,13,10.4,15.4V69.1z"/>
<path class="st0" d="M54.2,42.2v4.3c4.8,1.7,8.3,6.3,8.3,11.8c0,6.2-4.5,11.3-10.4,12.3v-1.9l-6.2,4.2l4.2,2.8l2.1,1.4v-2.2
	c8.2-1,14.6-8,14.6-16.5C66.7,50.6,61.3,44.1,54.2,42.2z"/>
</svg>
