<?xml version="1.0" encoding="utf-8"?>
<!-- Generator: Adobe Illustrator 19.2.1, SVG Export Plug-In . SVG Version: 6.00 Build 0)  -->
<svg version="1.1" id="Layer_1" xmlns="http://www.w3.org/2000/svg" xmlns:xlink="http://www.w3.org/1999/xlink" x="0px" y="0px"
	 viewBox="0 0 100 125" style="enable-background:new 0 0 100 125;" xml:space="preserve">
<style type="text/css">
	.st0{fill:#0400AF;}
</style>
<g>
	<g>
		<path class="st0" d="M68,24h-5c-1.1,0-2-0.9-2-2s0.9-2,2-2h5c1.1,0,2,0.9,2,2S69.1,24,68,24z"/>
	</g>
	<g>
		<path class="st0" d="M66,84h-7.9c-1.1,0-2-0.9-2-2s0.9-2,2-2H66c0.5,0,1,0,1.5-0.1c1.1-0.1,2.1,0.7,2.2,1.8s-0.7,2.1-1.8,2.2
			C67.4,84,66.7,84,66,84z M49.5,84h-9.7c-1.1,0-2-0.9-2-2s0.9-2,2-2h9.7c1.1,0,2,0.9,2,2S50.6,84,49.5,84z M75.7,80.5
			c-0.6,0-1.1-0.2-1.5-0.7c-0.7-0.8-0.6-2.1,0.2-2.8c2.2-1.8,3.7-4.3,4.3-7c0.3-1.1,1.3-1.7,2.4-1.5c1.1,0.3,1.7,1.3,1.5,2.4
			c-0.8,3.6-2.8,6.8-5.6,9.2C76.6,80.3,76.1,80.5,75.7,80.5z M80.1,63.9c-0.8,0-1.6-0.5-1.9-1.3c-1-2.6-2.8-4.9-5.1-6.4
			c-0.9-0.6-1.2-1.8-0.6-2.8c0.6-0.9,1.8-1.2,2.8-0.6c3.1,2,5.4,5,6.7,8.4c0.4,1-0.2,2.2-1.2,2.6C80.6,63.8,80.4,63.9,80.1,63.9z
			 M66,54h-9.7c-1.1,0-2-0.9-2-2s0.9-2,2-2H66c1.1,0,2,0.9,2,2S67.1,54,66,54z M47.7,54H38c-1.1,0-2-0.9-2-2s0.9-2,2-2h9.7
			c1.1,0,2,0.9,2,2S48.8,54,47.7,54z M29.3,53.5c-0.2,0-0.3,0-0.5-0.1c-3.5-0.9-6.8-3-9.1-5.8c-0.7-0.9-0.6-2.1,0.3-2.8
			s2.1-0.6,2.8,0.3c1.8,2.2,4.2,3.8,6.9,4.4c1.1,0.3,1.7,1.4,1.4,2.4C31.1,52.9,30.2,53.5,29.3,53.5z M18.1,40.5c-1,0-1.9-0.8-2-1.8
			c0-0.6-0.1-1.1-0.1-1.7c0-3.1,0.8-6.2,2.5-8.8c0.6-0.9,1.8-1.2,2.7-0.7c0.9,0.6,1.2,1.8,0.7,2.7c-1.2,2-1.9,4.4-1.9,6.7
			c0,0.4,0,0.9,0.1,1.3c0.1,1.1-0.7,2.1-1.8,2.2C18.2,40.5,18.2,40.5,18.1,40.5z M26.6,25.5c-0.7,0-1.5-0.4-1.8-1.1
			c-0.5-1-0.1-2.2,0.9-2.7C28,20.6,30.5,20,33,20h3c1.1,0,2,0.9,2,2s-0.9,2-2,2h-3c-2,0-3.9,0.4-5.6,1.3
			C27.1,25.4,26.8,25.5,26.6,25.5z M54.3,24h-9.7c-1.1,0-2-0.9-2-2s0.9-2,2-2h9.7c1.1,0,2,0.9,2,2S55.4,24,54.3,24z"/>
	</g>
	<g>
		<path class="st0" d="M31,84h-5c-1.1,0-2-0.9-2-2s0.9-2,2-2h5c1.1,0,2,0.9,2,2S32.1,84,31,84z"/>
	</g>
</g>
<circle class="st0" cx="26" cy="82" r="7"/>
<path class="st0" d="M87.6,29.2c-1.6-2.2-3.8-4.9-6.3-7.4c0,0,0,0-0.1-0.1c0.2-0.2,0.4-0.4,0.6-0.6c0.3-0.3,0.6-0.6,0.9-0.9
	s0.6-0.6,0.9-0.9c0.6-0.6,1.1-1.1,1.7-1.7c0.5-0.5,1-1.1,1.5-1.5s0.9-0.9,1.3-1.3c0.4-0.4,0.7-0.7,1-1C89.7,13.4,90,13,90,13
	s-0.4,0.1-1.2,0.4c-0.4,0.1-0.8,0.3-1.4,0.5c-0.5,0.2-1.1,0.5-1.7,0.8s-1.3,0.7-1.9,1.1c-0.7,0.4-1.4,0.9-2,1.4
	c-0.7,0.5-1.4,1.1-2,1.7c-0.3,0.2-0.5,0.5-0.8,0.7c-1.8-1.7-3.6-3.1-5.2-4.3c-1.1-0.8-2.1-1.4-2.8-1.8c-0.5-0.3-1-0.5-1-0.5
	s0.2,0.4,0.5,1.2c0.4,0.7,0.9,1.7,1.7,2.9c0.7,1.1,1.7,2.4,2.7,3.7c0.5,0.6,1,1.1,1.5,1.7c-1.9,2.2-3.5,4.5-4.5,6.4
	c-0.7,1.2-1.1,2.2-1.4,3C70.2,32.6,70,33,70,33s0.3-0.3,0.9-0.9c0.6-0.6,1.4-1.3,2.3-2.3c0.5-0.5,1-1,1.5-1.5s1.1-1.1,1.7-1.7
	s1.2-1.2,1.8-1.8c0.1-0.1,0.1-0.2,0.2-0.2l0,0c1.3,1.3,2.6,2.5,3.9,3.5c1.3,1.1,2.6,2,3.7,2.7s2.1,1.3,2.9,1.6
	C89.6,32.8,90,33,90,33s-0.2-0.4-0.6-1.1S88.4,30.2,87.6,29.2z"/>
</svg>
