<?xml version="1.0" encoding="utf-8"?>
<!-- Generator: Adobe Illustrator 19.2.1, SVG Export Plug-In . SVG Version: 6.00 Build 0)  -->
<svg version="1.1" id="Layer_1" xmlns="http://www.w3.org/2000/svg" xmlns:xlink="http://www.w3.org/1999/xlink" x="0px" y="0px"
	 viewBox="0 0 100 76.2" style="enable-background:new 0 0 100 76.2;" xml:space="preserve">
<style type="text/css">
	.st0{fill:#0400AF;}
</style>
<path class="st0" d="M89,0c-6.1,0-11,4.9-11,11c0,2.3,0.7,4.5,1.9,6.2l-4.2,4.2c-1.8-1.2-3.9-1.9-6.2-1.9s-4.5,0.7-6.2,1.9l-4.2-4.2
	c1.2-1.8,1.9-3.9,1.9-6.2c0-6.1-4.9-11-11-11S39,4.9,39,11c0,2.3,0.7,4.5,1.9,6.2l-4.2,4.2c-1.8-1.2-3.9-1.9-6.2-1.9
	s-4.5,0.7-6.2,1.9l-4.2-4.2c1.2-1.8,1.9-3.9,1.9-6.2c0-6.1-4.9-11-11-11S0,4.9,0,11s4.9,11,11,11c2.3,0,4.5-0.7,6.2-1.9l4.2,4.2
	c-1.2,1.8-1.9,3.9-1.9,6.2c0,6.1,4.9,11,11,11c2.3,0,4.5-0.7,6.2-1.9l4.2,4.2C39.7,45.5,39,47.7,39,50c0,6.1,4.9,11,11,11
	s11-4.9,11-11c0-2.3-0.7-4.5-1.9-6.2l4.2-4.2c1.8,1.2,3.9,1.9,6.2,1.9c6.1,0,11-4.9,11-11c0-2.3-0.7-4.5-1.9-6.2l4.2-4.2
	c1.8,1.2,3.9,1.9,6.2,1.9c6.1,0,11-4.9,11-11S95.1,0,89,0z M60.4,36.7l-4.2,4.2C54.5,39.7,52.3,39,50,39c-2.3,0-4.5,0.7-6.2,1.9
	l-4.2-4.2c1.2-1.8,1.9-3.9,1.9-6.2s-0.7-4.5-1.9-6.2l4.2-4.2c1.8,1.2,3.9,1.9,6.2,1.9c2.3,0,4.5-0.7,6.2-1.9l4.2,4.2
	c-1.2,1.8-1.9,3.9-1.9,6.2S59.2,35,60.4,36.7z"/>
</svg>
