<?xml version="1.0" encoding="utf-8"?>
<!-- Generator: Adobe Illustrator 19.2.1, SVG Export Plug-In . SVG Version: 6.00 Build 0)  -->
<svg version="1.1"
	 id="Layer_1" xmlns:cc="http://creativecommons.org/ns#" xmlns:dc="http://purl.org/dc/elements/1.1/" xmlns:inkscape="http://www.inkscape.org/namespaces/inkscape" xmlns:rdf="http://www.w3.org/1999/02/22-rdf-syntax-ns#" xmlns:sodipodi="http://sodipodi.sourceforge.net/DTD/sodipodi-0.dtd" xmlns:svg="http://www.w3.org/2000/svg"
	 xmlns="http://www.w3.org/2000/svg" xmlns:xlink="http://www.w3.org/1999/xlink" x="0px" y="0px" viewBox="0 0 100 125"
	 style="enable-background:new 0 0 100 125;" xml:space="preserve">
<style type="text/css">
	.st0{fill:#0400AF;}
</style>
<g transform="translate(0,-952.36218)">
	<path class="st0" d="M74.2,957.4c-6.5,0-12.4,3-16.2,7.8c-0.8,0.8-0.8,2.2,0,3s2.2,0.8,3,0c0.1-0.1,0.2-0.2,0.3-0.4
		c3-3.8,7.7-6.2,12.9-6.2c9.2,0,16.5,7.4,16.5,16.5c0,9.2-7.4,16.5-16.5,16.5c-4.9,0-9.2-2.1-12.2-5.4c-0.7-0.9-2.1-1-3-0.3
		c-0.9,0.7-1,2.1-0.3,3c0,0.1,0.1,0.1,0.1,0.2c1.5,1.6,3.2,3,5.2,4.1c-2.2,1.6-5.3,1.5-7.3-0.6c-2.2-2.2-2.2-5.8,0-8
		c2.2-2.2,5.8-2.2,8,0c0.6,0.6,1,1.2,1.3,2c0.3,1.1,1.5,1.8,2.6,1.4c1.1-0.3,1.8-1.5,1.4-2.6c0-0.1-0.1-0.2-0.1-0.3
		c-0.5-1.3-1.2-2.5-2.2-3.5c-1.9-1.9-4.5-2.9-7-2.9c-2.5,0-5.1,1-7,2.9c-3.9,3.9-3.9,10.2,0,14c3.9,3.9,10.2,3.9,14,0
		c0.2-0.2,0.4-0.4,0.6-0.6c1.9,0.6,3.9,0.9,6,0.9c1.2,0,2.4-0.1,3.5-0.3v6l-37.6,37.6l-30-30l37.6-37.6h19.2l10.8,10.9v3.9
		c0,1.2,0.9,2.1,2.1,2.2c1.2,0,2.1-0.9,2.2-2.1c0,0,0-0.1,0-0.1v-4.8c0-0.6-0.2-1.1-0.6-1.5L69.3,971c-0.4-0.4-1-0.6-1.5-0.6h-21
		c-0.1,0-0.1,0-0.2,0c-0.5,0-1,0.3-1.3,0.6l-39.7,39.7c-0.8,0.8-0.8,2.2,0,3l33,33c0.8,0.8,2.2,0.8,3,0l39.7-39.7
		c0.4-0.4,0.6-1,0.6-1.5v-8.1c7.6-3.1,13-10.6,13-19.3C95,966.7,85.7,957.4,74.2,957.4L74.2,957.4z M29.5,999.1
		c-1.1,0.1-1.9,1-1.9,2.1v12.1c0,1.2,0.9,2.1,2.1,2.2c1.2,0,2.1-0.9,2.2-2.1c0,0,0-0.1,0-0.1v-10h10c1.2,0,2.1-0.9,2.2-2.1
		c0-1.2-0.9-2.1-2.1-2.2c0,0-0.1,0-0.1,0H29.7C29.6,999.1,29.6,999.1,29.5,999.1z M51.1,1008.3c-0.1,0-0.2,0-0.2,0
		c-1.1,0.1-1.9,1.1-1.9,2.2v10H39c-1.2,0-2.1,0.9-2.2,2.1c0,1.2,0.9,2.1,2.1,2.2c0,0,0,0,0.1,0h12.1c1.2,0,2.1-1,2.1-2.1v-12.1
		C53.3,1009.3,52.3,1008.3,51.1,1008.3C51.1,1008.3,51.1,1008.3,51.1,1008.3L51.1,1008.3z"/>
</g>
</svg>
